<svg width="442" height="588" viewBox="0 0 442 588" fill="none" xmlns="http://www.w3.org/2000/svg">
<path d="M194.734 395.246L202.311 400.734L207.784 402L209.468 398.201L212.835 391.869V384.272L225.465 372.453V358.101L236.41 357.257V353.458L233.884 345.438L239.777 337.418L244.408 334.463L253.248 331.086H257.879L259.563 343.327L262.089 344.172L263.773 332.353L267.982 326.021L272.192 328.132L275.56 332.353L276.402 324.755L281.032 326.021L283.558 329.398L288.61 319.267V315.046L301.239 323.488L307.132 315.046L310.079 301.117L315.973 290.142V277.901L327.339 267.348L329.865 284.233L341.231 288.876L345.019 288.032L342.073 279.589L349.65 272.414L353.86 277.057L355.123 285.499L358.911 288.876L364.805 281.7L357.648 271.569L361.016 267.348L369.435 269.459L372.803 274.946L373.645 281.7L379.118 284.233V270.725L384.169 272.836L385.432 275.791L387.958 274.946V264.394L391.747 262.283L395.956 264.816H402.692L408.165 262.283V256.374L413.216 255.952L416.584 257.218L418.689 248.354L424.161 249.62L427.529 254.263L435.948 248.776L441 240.756L440.158 233.158L430.055 231.469L428.792 230.203V226.404L437.632 225.982L436.79 218.806L433.423 214.585L433.002 208.676L424.161 201.078L418.689 205.721L411.532 197.701L415.321 188.415L409.006 178.284L410.69 177.018L413.637 170.686L409.427 165.621H399.745L394.694 162.244L392.168 160.134L388.379 159.289L387.958 152.536L389.221 146.626L387.958 144.094L389.221 139.873L385.011 39.4116L368.173 17.04L361.016 13.2411L357.648 6.48737L345.861 8.04813V14.9295L334.916 14.0853L327.76 18.7284H322.287L315.973 25.9042L305.027 18.7284L303.765 1.42211L292.398 1L245.671 70.6474L244.829 93.441L229.253 114.124L230.937 120.878V129.32L229.253 133.963L230.937 139.028L229.253 146.626L225.044 145.782L222.939 151.269L219.992 154.646L222.518 157.179L219.992 160.978L212.835 163.511L208.626 170.264L200.627 175.752L207.784 188.415L205.679 190.103L199.785 188.415L196.839 185.882V192.636L195.576 196.857L195.155 202.344L190.945 199.812L188.419 195.168L184.631 192.636L182.947 196.435H180V198.545V202.344V225.56L181.263 242.866L182.947 290.564L184.631 328.976V357.257V371.608L194.734 384.272V395.246Z" stroke="#2C4E91" stroke-width="2" stroke-linejoin="round"/>
<path d="M309.042 182.222V192.752H306.477V186.437L304.122 192.752H302.052L299.682 186.422V192.752H297.117V182.222H300.147L303.102 189.512L306.027 182.222H309.042ZM313.452 184.277V186.407H316.887V188.387H313.452V190.697H317.337V192.752H310.887V182.222H317.337V184.277H313.452Z" fill="#2C4E91"/>
</svg>
