<?xml version="1.0" encoding="UTF-8"?>
<svg version="1.1" xmlns="http://www.w3.org/2000/svg" width="400" height="400">
<path d="M0 0 C17.0472728 8.82149655 32.2607218 22.71449946 44.45581055 37.41723633 C45.29885742 38.37243164 46.1419043 39.32762695 47.01049805 40.31176758 C64.16496188 59.77117126 78.31142128 81.1204575 91.45581055 103.41723633 C91.95226074 102.55110718 91.95226074 102.55110718 92.45874023 101.66748047 C99.87266897 88.78750138 107.58126742 76.34220931 116.45581055 64.41723633 C116.88990234 63.83151855 117.32399414 63.24580078 117.77124023 62.64233398 C137.97078525 35.52588097 165.85862187 -0.62305335 201.45581055 -6.58276367 C207.84247483 -7.2585508 213.83073805 -6.92265047 219.45581055 -3.58276367 C225.69420694 2.51700169 228.25575264 9.67547044 228.6171875 18.2421875 C228.63038985 19.75230995 228.63460589 21.26252793 228.6315918 22.77270508 C228.62945427 24.01312813 228.62945427 24.01312813 228.62727356 25.27861023 C228.53859246 34.79610843 227.75985328 44.2472633 226.91162109 53.72265625 C226.64455763 56.71575973 226.39202352 59.70982916 226.14135742 62.7043457 C225.28864974 72.65545355 224.26561882 82.57341154 222.9597168 92.47583008 C222.84403854 93.37707108 222.72836029 94.27831207 222.60917664 95.2068634 C220.65739007 109.3728881 213.95523654 121.40127462 202.9519043 130.60473633 C191.20177302 139.13691303 176.82336036 142.81983301 162.45581055 143.41723633 C163.20604492 143.70856445 163.9562793 143.99989258 164.72924805 144.30004883 C178.88870998 149.97096683 190.54005596 156.35365485 197.45581055 170.41723633 C200.10247311 178.30910288 199.23578233 187.52611572 195.76049805 194.96801758 C195.32995117 195.77625977 194.8994043 196.58450195 194.45581055 197.41723633 C194.00463867 198.27704102 193.5534668 199.1368457 193.08862305 200.02270508 C183.76243808 216.09993439 168.23445409 228.1562997 151.01831055 234.72973633 C140.81839445 236.69814119 132.02311628 235.39218453 123.08081055 229.97973633 C107.10110116 218.4388351 98.17911988 198.77671488 92.45581055 180.41723633 C92.45581055 179.42723633 92.45581055 178.43723633 92.45581055 177.41723633 C91.79581055 177.41723633 91.13581055 177.41723633 90.45581055 177.41723633 C90.31852539 178.36083008 90.31852539 178.36083008 90.1784668 179.32348633 C87.17617191 192.17655419 80.96069561 204.64803134 73.45581055 215.41723633 C72.9040918 216.24481445 72.35237305 217.07239258 71.78393555 217.92504883 C65.76176121 226.38476992 56.88499216 233.59345754 46.45581055 235.41723633 C33.59262184 236.95459171 22.6052337 231.9883185 12.45581055 224.41723633 C8.98556147 221.55028464 5.70487293 218.53092112 2.45581055 215.41723633 C1.74424805 214.76883789 1.03268555 214.12043945 0.29956055 213.45239258 C-8.54985059 205.13054249 -15.61961384 194.24884186 -16.59887695 181.90161133 C-16.39070129 172.44448841 -13.1473439 165.08474901 -6.54418945 158.41723633 C1.15072111 151.23925834 10.47076423 146.56807316 20.45581055 143.41723633 C18.94954102 143.2702832 18.94954102 143.2702832 17.4128418 143.12036133 C-0.94973484 141.18068433 -17.33982128 136.14497287 -29.54418945 121.41723633 C-38.43425029 109.50415704 -40.25790053 95.52499896 -41.66918945 81.16723633 C-41.83488696 79.56520023 -42.00123636 77.96323142 -42.16821289 76.36132812 C-42.5736868 72.42636785 -42.96062972 68.48988394 -43.33850098 64.55218506 C-43.5258833 62.60724546 -43.71881819 60.66284283 -43.91235352 58.71850586 C-45.04722991 47.171562 -45.75051744 35.64532172 -45.91918945 24.04223633 C-45.95834473 22.53560425 -45.95834473 22.53560425 -45.99829102 20.99853516 C-46.01604037 13.42399925 -44.93886128 5.31755802 -39.79370117 -0.59399414 C-28.09196398 -11.35417332 -12.76701647 -6.2780163 0 0 Z " fill="#FFFFFF" transform="translate(108.544189453125,85.582763671875)"/>
</svg>
