<svg width="30" height="17" viewBox="0 0 30 17" fill="none" xmlns="http://www.w3.org/2000/svg">
<path d="M3.0671 0.94582C2.48489 0.356476 1.53516 0.350691 0.94582 0.932899C0.356476 1.51511 0.350691 2.46484 0.932899 3.05418L3.0671 0.94582ZM14.2886 14.4392L15.3557 13.385L14.2886 14.4392ZM15.7114 14.4392L14.6443 13.385L15.7114 14.4392ZM0.932899 3.05418L13.2215 15.4934L15.3557 13.385L3.0671 0.94582L0.932899 3.05418ZM16.7785 15.4934L29.0671 3.05418L26.9329 0.94582L14.6443 13.385L16.7785 15.4934ZM13.2215 15.4934C14.2002 16.4841 15.7998 16.4841 16.7785 15.4934L14.6443 13.385C14.84 13.1869 15.16 13.1869 15.3557 13.385L13.2215 15.4934Z" fill="#565353"/>
</svg>
