<?xml version="1.0" encoding="UTF-8"?>
<svg version="1.1" xmlns="http://www.w3.org/2000/svg" width="512" height="512">
<path d="M0 0 C2.00614104 0.97982646 3.9471284 1.69524392 6.06640625 2.3828125 C16.87906278 6.2700072 26.89528105 14.17913245 35.87890625 21.1953125 C38.93335103 23.57368834 41.96767954 25.92116136 45.19140625 28.0703125 C45.19140625 28.7303125 45.19140625 29.3903125 45.19140625 30.0703125 C45.85140625 30.0703125 46.51140625 30.0703125 47.19140625 30.0703125 C47.19140625 30.7303125 47.19140625 31.3903125 47.19140625 32.0703125 C47.72765625 32.2765625 48.26390625 32.4828125 48.81640625 32.6953125 C52.11118634 34.60281676 54.78504253 37.11850634 57.19140625 40.0703125 C57.19140625 40.7303125 57.19140625 41.3903125 57.19140625 42.0703125 C57.85140625 42.0703125 58.51140625 42.0703125 59.19140625 42.0703125 C59.19140625 42.7303125 59.19140625 43.3903125 59.19140625 44.0703125 C59.85140625 44.0703125 60.51140625 44.0703125 61.19140625 44.0703125 C61.19140625 44.7303125 61.19140625 45.3903125 61.19140625 46.0703125 C61.85140625 46.0703125 62.51140625 46.0703125 63.19140625 46.0703125 C64.86263102 48.18338986 66.41349991 50.29432162 67.94140625 52.5078125 C68.3909668 53.14944336 68.84052734 53.79107422 69.30371094 54.45214844 C70.60770221 56.31941887 71.90146236 58.19331891 73.19140625 60.0703125 C73.77921875 60.92238281 74.36703125 61.77445312 74.97265625 62.65234375 C76.40961273 64.77338323 77.80803746 66.91400126 79.19140625 69.0703125 C79.69285156 69.8334375 80.19429688 70.5965625 80.7109375 71.3828125 C84.24098876 76.95939981 86.71451163 82.59364008 88.97265625 88.7890625 C90.12783767 91.89916631 91.41591684 94.91036092 92.75390625 97.9453125 C100.06263578 115.38973297 101.48487752 133.42167266 102.19140625 152.0703125 C97.370603 154.26980398 92.3402437 155.25780744 87.19140625 156.3828125 C85.21853321 156.82194384 83.24588237 157.26207445 81.2734375 157.703125 C80.26748535 157.92774414 79.2615332 158.15236328 78.22509766 158.38378906 C72.58241359 159.66072674 66.95862321 161.01654141 61.33398438 162.37036133 C57.50489823 163.28975521 53.67470471 164.19166859 49.828125 165.03515625 C45.36242199 166.01859581 40.92138005 167.09438862 36.47851562 168.17578125 C27.90610901 170.26196297 19.33606831 172.30493977 10.69140625 174.0703125 C2.2007327 175.80543118 -6.21276099 177.81951522 -14.63427734 179.86157227 C-21.23637342 181.45999037 -27.84534438 183.0019439 -34.48046875 184.45654297 C-42.2852539 186.16778065 -50.07791501 187.9321504 -57.87109375 189.6953125 C-61.73499182 190.56943666 -65.59894267 191.44330358 -69.46362305 192.31396484 C-71.51571914 192.77797431 -73.56689813 193.24609195 -75.61645508 193.72119141 C-79.78195944 194.67845757 -83.52298472 195.29008732 -87.80859375 195.0703125 C-87.80859375 195.7303125 -87.80859375 196.3903125 -87.80859375 197.0703125 C-108.0234375 201.5625 -108.0234375 201.5625 -111.55053711 202.34326172 C-113.55312252 202.79014814 -115.5543038 203.24345575 -117.55297852 203.70751953 C-122.1583265 204.77207233 -126.11444237 205.27006362 -130.80859375 205.0703125 C-130.80859375 205.7303125 -130.80859375 206.3903125 -130.80859375 207.0703125 C-133.77859375 207.4003125 -136.74859375 207.7303125 -139.80859375 208.0703125 C-139.02729304 210.56583734 -139.02729304 210.56583734 -137.80859375 213.0703125 C-136.81859375 213.4003125 -135.82859375 213.7303125 -134.80859375 214.0703125 C-133.125 215.8125 -133.125 215.8125 -131.37109375 217.9453125 C-129.5308076 220.17671092 -127.92256745 221.9865849 -125.5859375 223.703125 C-124.99941406 224.15429688 -124.41289062 224.60546875 -123.80859375 225.0703125 C-123.80859375 225.7303125 -123.80859375 226.3903125 -123.80859375 227.0703125 C-123.0815625 227.33070313 -122.35453125 227.59109375 -121.60546875 227.859375 C-117.88048904 229.47214554 -114.93049775 231.78994095 -111.69921875 234.21875 C-93.66797884 245.76849016 -70.06068352 248.78815814 -49.43359375 244.3203125 C-36.33936271 241.22183741 -25.50450349 236.36786213 -14.41796875 228.71484375 C-11.80859375 227.0703125 -11.80859375 227.0703125 -9.80859375 227.0703125 C-9.41994141 226.173125 -9.41994141 226.173125 -9.0234375 225.2578125 C-7.71696335 222.90531885 -6.46743262 221.72935057 -4.37109375 220.0703125 C-1.74662369 217.9249988 0.18698949 215.81319859 2.19140625 213.0703125 C2.85140625 213.0703125 3.51140625 213.0703125 4.19140625 213.0703125 C4.50078125 212.2659375 4.81015625 211.4615625 5.12890625 210.6328125 C6.19140625 208.0703125 6.19140625 208.0703125 7.19140625 207.0703125 C14.47353205 206.43152954 21.2521346 208.24245666 28.28271484 209.95117188 C30.31661271 210.44536267 32.35318151 210.92690919 34.390625 211.40625 C40.07678831 212.75810596 45.64690283 214.21134706 51.19140625 216.0703125 C53.73321387 216.5878874 56.26183314 217.06818973 58.81640625 217.5078125 C64.82606543 218.5820798 70.71211355 219.89963921 76.62109375 221.4453125 C78.87949183 221.99446705 81.07638678 222.39701038 83.37890625 222.6953125 C86.19140625 223.0703125 86.19140625 223.0703125 87.19140625 224.0703125 C87.63239212 228.29815507 86.62329599 230.63769295 84.453125 234.23046875 C83.88013672 235.18888672 83.30714844 236.14730469 82.71679688 237.13476562 C82.11029297 238.12412109 81.50378906 239.11347656 80.87890625 240.1328125 C80.28400391 241.12603516 79.68910156 242.11925781 79.07617188 243.14257812 C73.599864 252.22896605 73.599864 252.22896605 71.19140625 255.0703125 C70.53140625 255.0703125 69.87140625 255.0703125 69.19140625 255.0703125 C69.07667969 255.65296875 68.96195312 256.235625 68.84375 256.8359375 C68.14316563 259.23554385 67.2094803 260.79892183 65.75390625 262.8203125 C65.10615234 263.74070312 65.10615234 263.74070312 64.4453125 264.6796875 C64.03152344 265.13859375 63.61773437 265.5975 63.19140625 266.0703125 C62.53140625 266.0703125 61.87140625 266.0703125 61.19140625 266.0703125 C61.19140625 266.7303125 61.19140625 267.3903125 61.19140625 268.0703125 C60.53140625 268.0703125 59.87140625 268.0703125 59.19140625 268.0703125 C59.19140625 268.7303125 59.19140625 269.3903125 59.19140625 270.0703125 C58.53140625 270.0703125 57.87140625 270.0703125 57.19140625 270.0703125 C56.88203125 270.8746875 56.88203125 270.8746875 56.56640625 271.6953125 C54.65890199 274.99009259 52.14321241 277.66394878 49.19140625 280.0703125 C48.53140625 280.0703125 47.87140625 280.0703125 47.19140625 280.0703125 C47.19140625 280.7303125 47.19140625 281.3903125 47.19140625 282.0703125 C46.53140625 282.0703125 45.87140625 282.0703125 45.19140625 282.0703125 C45.19140625 282.7303125 45.19140625 283.3903125 45.19140625 284.0703125 C44.53140625 284.0703125 43.87140625 284.0703125 43.19140625 284.0703125 C43.19140625 284.7303125 43.19140625 285.3903125 43.19140625 286.0703125 C41.08426684 287.83699707 38.97928036 289.46331277 36.75390625 291.0703125 C36.08955566 291.55435547 35.42520508 292.03839844 34.74072266 292.53710938 C27.75507159 297.53312488 20.40330475 301.85504339 12.92919922 306.07226562 C11.47319126 306.90847812 10.04687878 307.79611041 8.62890625 308.6953125 C5.62404116 310.3903646 2.58000474 311.45626138 -0.68359375 312.5703125 C-4.29163362 313.80735474 -7.80840128 315.07022841 -11.3046875 316.59765625 C-36.93868944 327.37136721 -69.79062537 327.84516751 -96.80859375 323.0703125 C-98.07574219 322.85246094 -99.34289062 322.63460938 -100.6484375 322.41015625 C-112.08335057 320.28570032 -122.82308917 317.23240054 -133.328125 312.21484375 C-135.47349074 311.22493483 -137.56950504 310.43561972 -139.80859375 309.6953125 C-144.29473677 308.08066798 -148.07746952 305.46405833 -152.04296875 302.85546875 C-155.85806699 300.39289828 -159.80789006 298.21389941 -163.80859375 296.0703125 C-163.80859375 295.4103125 -163.80859375 294.7503125 -163.80859375 294.0703125 C-164.79859375 293.7609375 -164.79859375 293.7609375 -165.80859375 293.4453125 C-169.88039561 291.57906998 -173.49656373 289.09469723 -176.80859375 286.0703125 C-176.80859375 285.4103125 -176.80859375 284.7503125 -176.80859375 284.0703125 C-177.46859375 284.0703125 -178.12859375 284.0703125 -178.80859375 284.0703125 C-178.80859375 283.4103125 -178.80859375 282.7503125 -178.80859375 282.0703125 C-179.63617188 281.73 -179.63617188 281.73 -180.48046875 281.3828125 C-183.49551792 279.68305324 -185.62089744 277.52226434 -188.05859375 275.0703125 C-188.950625 274.1834375 -189.84265625 273.2965625 -190.76171875 272.3828125 C-192.80859375 270.0703125 -192.80859375 270.0703125 -192.80859375 268.0703125 C-193.46859375 268.0703125 -194.12859375 268.0703125 -194.80859375 268.0703125 C-194.80859375 267.4103125 -194.80859375 266.7503125 -194.80859375 266.0703125 C-195.46859375 266.0703125 -196.12859375 266.0703125 -196.80859375 266.0703125 C-198.25386111 264.33483081 -199.61731595 262.53055287 -200.93359375 260.6953125 C-202.02027344 259.19871094 -202.02027344 259.19871094 -203.12890625 257.671875 C-204.80859375 255.0703125 -204.80859375 255.0703125 -204.80859375 253.0703125 C-205.46859375 253.0703125 -206.12859375 253.0703125 -206.80859375 253.0703125 C-209.74307797 248.91312652 -212.23995866 244.46133179 -214.80859375 240.0703125 C-215.36417969 239.13960937 -215.91976562 238.20890625 -216.4921875 237.25 C-219.96925163 231.19900528 -222.41568686 225.04296947 -224.6328125 218.4296875 C-225.77992559 215.01794114 -225.77992559 215.01794114 -227.32421875 211.59765625 C-238.13693145 185.90323635 -238.50267843 153.15605576 -233.80859375 126.0703125 C-233.70144043 125.40499512 -233.59428711 124.73967773 -233.48388672 124.05419922 C-231.5214391 111.87674042 -228.23667176 100.75960133 -222.953125 89.5859375 C-221.97167878 87.42876561 -221.17759154 85.31599907 -220.43359375 83.0703125 C-218.81894923 78.58416948 -216.20233958 74.80143673 -213.59375 70.8359375 C-211.13117953 67.02083926 -208.95218066 63.07101619 -206.80859375 59.0703125 C-206.14859375 59.0703125 -205.48859375 59.0703125 -204.80859375 59.0703125 C-204.49921875 58.0803125 -204.49921875 58.0803125 -204.18359375 57.0703125 C-202.31735123 52.99851064 -199.83297848 49.38234252 -196.80859375 46.0703125 C-196.14859375 46.0703125 -195.48859375 46.0703125 -194.80859375 46.0703125 C-194.80859375 45.4103125 -194.80859375 44.7503125 -194.80859375 44.0703125 C-194.14859375 44.0703125 -193.48859375 44.0703125 -192.80859375 44.0703125 C-192.58171875 43.51859375 -192.35484375 42.966875 -192.12109375 42.3984375 C-190.42133449 39.38338833 -188.26054559 37.25800881 -185.80859375 34.8203125 C-184.92171875 33.92828125 -184.03484375 33.03625 -183.12109375 32.1171875 C-180.80859375 30.0703125 -180.80859375 30.0703125 -178.80859375 30.0703125 C-178.80859375 29.4103125 -178.80859375 28.7503125 -178.80859375 28.0703125 C-178.14859375 28.0703125 -177.48859375 28.0703125 -176.80859375 28.0703125 C-176.80859375 27.4103125 -176.80859375 26.7503125 -176.80859375 26.0703125 C-175.07311206 24.62504514 -173.26883412 23.2615903 -171.43359375 21.9453125 C-170.43585938 21.22085938 -169.438125 20.49640625 -168.41015625 19.75 C-165.80859375 18.0703125 -165.80859375 18.0703125 -163.80859375 18.0703125 C-163.80859375 17.4103125 -163.80859375 16.7503125 -163.80859375 16.0703125 C-162.91398437 15.56242187 -162.019375 15.05453125 -161.09765625 14.53125 C-160.51757812 14.2010083 -159.9375 13.8707666 -159.33984375 13.53051758 C-158.05665685 12.80001479 -156.77278892 12.07070715 -155.48828125 11.3425293 C-151.86339232 9.27860816 -148.32197273 7.13302011 -144.80859375 4.8828125 C-139.87361167 1.88103828 -134.66867494 0.0637795 -129.203125 -1.75390625 C-125.75969176 -2.89772031 -125.75969176 -2.89772031 -122.328125 -4.4453125 C-86.58003523 -19.52219831 -34.56485234 -17.20128802 0 0 Z M-116.6953125 80.45703125 C-118.80859375 82.0703125 -118.80859375 82.0703125 -121.4296875 83.640625 C-126.54711782 86.716125 -130.21283766 91.6156778 -134.0625 96.10546875 C-135.80859375 98.0703125 -135.80859375 98.0703125 -137.80859375 99.99609375 C-141.52192789 103.8472274 -144.07865893 108.49582713 -146.80859375 113.0703125 C-147.2778125 113.84375 -147.74703125 114.6171875 -148.23046875 115.4140625 C-152.49718288 123.10468302 -154.03688584 131.53840066 -155.80859375 140.0703125 C-148.69402575 139.46638437 -142.07997315 138.01067002 -135.18359375 136.1953125 C-127.2504688 134.15533162 -119.35623101 132.30814546 -111.30859375 130.78125 C-107.43971692 129.99538439 -103.63112692 129.05293591 -99.80859375 128.0703125 C-93.71878338 126.51083316 -87.61895819 125.19077762 -81.4453125 123.99609375 C-74.90275925 122.71135758 -68.38935754 121.28447568 -61.87109375 119.8828125 C-60.59459961 119.60840332 -59.31810547 119.33399414 -58.00292969 119.05126953 C-54.93797588 118.39175938 -51.87319038 117.73148006 -48.80859375 117.0703125 C-48.80859375 116.4103125 -48.80859375 115.7503125 -48.80859375 115.0703125 C-47.65359375 114.9671875 -46.49859375 114.8640625 -45.30859375 114.7578125 C-34.89500872 113.5934589 -24.57415866 111.41471805 -14.45703125 108.71875 C-11.59044221 108.01690077 -8.72392303 107.52342819 -5.80859375 107.0703125 C-5.80859375 106.4103125 -5.80859375 105.7503125 -5.80859375 105.0703125 C-5.10992187 105.02132812 -4.41125 104.97234375 -3.69140625 104.921875 C-2.78132812 104.84710938 -1.87125 104.77234375 -0.93359375 104.6953125 C-0.02867187 104.62570313 0.87625 104.55609375 1.80859375 104.484375 C4.37082528 104.27463118 4.37082528 104.27463118 6.19140625 102.0703125 C1.45809714 96.65330318 -3.16272785 91.53448554 -8.80859375 87.0703125 C-9.3809375 86.45800781 -9.95328125 85.84570312 -10.54296875 85.21484375 C-25.31306374 71.23418488 -49.07098871 64.35416353 -69.07250977 64.59790039 C-85.26076779 65.23983347 -103.82230539 70.51074689 -116.6953125 80.45703125 Z " fill="#FFFFFF" transform="translate(322.80859375,99.9296875)"/>
</svg>
