<svg width="94" height="94" viewBox="0 0 94 94" fill="none" xmlns="http://www.w3.org/2000/svg">
<g id="&#240;&#159;&#166;&#134; icon &#34;Gavel&#34;">
<path id="Vector" d="M92.7095 36.6018L88.5553 32.4476C86.8345 30.7268 84.0446 30.7268 82.324 32.4476L81.2854 33.4862L60.514 12.7149L61.5525 11.6763C63.2734 9.95551 63.2734 7.16562 61.5525 5.44498L57.3984 1.29062C55.6775 -0.430206 52.8876 -0.430206 51.167 1.29062L28.3186 24.1391C26.5977 25.8599 26.5977 28.6498 28.3186 30.3704L32.4727 34.5246C34.1936 36.2454 36.9835 36.2454 38.7041 34.5246L39.7427 33.486L47.0126 40.756L32.1342 55.6344L31.0956 54.5958C28.8012 52.3014 25.0814 52.3014 22.7871 54.5958L1.72078 75.6625C-0.573593 77.9568 -0.573593 81.6766 1.72078 83.971L10.0293 92.2795C12.3237 94.5739 16.0435 94.5739 18.3379 92.2795L39.4043 71.2131C41.6987 68.9187 41.6987 65.1989 39.4043 62.9045L38.3657 61.8659L53.2442 46.9875L60.5141 54.2574L59.4755 55.296C57.7547 57.0169 57.7547 59.8068 59.4755 61.5274L63.6297 65.6816C65.3505 67.4024 68.1404 67.4024 69.8611 65.6816L92.7095 42.8331C94.4302 41.1125 94.4302 38.3226 92.7095 36.6018Z" fill="#2C4E91"/>
</g>
</svg>
