<svg width="26" height="26" viewBox="0 0 26 26" fill="none" xmlns="http://www.w3.org/2000/svg">
<path id="Vector" d="M25.6431 10.1239L24.494 8.97484C24.0181 8.49887 23.2464 8.49887 22.7705 8.97484L22.4832 9.2621L16.7379 3.51688L17.0252 3.22961C17.5011 2.75364 17.5011 1.98197 17.0252 1.50605L15.8761 0.356978C15.4002 -0.118993 14.6285 -0.118993 14.1526 0.356978L7.8328 6.67674C7.35682 7.15271 7.35682 7.92438 7.8328 8.4003L8.98182 9.54932C9.4578 10.0253 10.2295 10.0253 10.7054 9.54932L10.9927 9.26205L13.0035 11.2729L8.88818 15.3882L8.60091 15.1009C7.9663 14.4663 6.93742 14.4663 6.30281 15.1009L0.47596 20.9278C-0.158653 21.5625 -0.158653 22.5913 0.47596 23.2259L2.77407 25.524C3.40868 26.1587 4.43756 26.1587 5.07217 25.524L10.8991 19.6972C11.5337 19.0626 11.5337 18.0337 10.8991 17.3991L10.6118 17.1118L14.7271 12.9965L16.738 15.0073L16.4507 15.2946C15.9747 15.7706 15.9747 16.5422 16.4507 17.0182L17.5997 18.1672C18.0757 18.6432 18.8474 18.6432 19.3233 18.1672L25.6431 11.8474C26.119 11.3715 26.119 10.5998 25.6431 10.1239Z" fill="white"/>
</svg>
