<svg width="142" height="85" viewBox="0 0 142 85" fill="none" xmlns="http://www.w3.org/2000/svg">
<g id="&#240;&#159;&#166;&#134; icon &#34;Graduation Cap&#34;">
<path id="Vector" d="M137.756 19.7452L76.0114 0.775288C72.6468 -0.258429 69.0167 -0.258429 65.6543 0.775288L3.90798 19.7452C-1.30266 21.3456 -1.30266 28.2363 3.90798 29.8367L14.6724 33.1437C12.3105 36.0633 10.8585 39.6249 10.7146 43.5251C8.58295 44.747 7.08218 46.9517 7.08218 49.5836C7.08218 51.9697 8.33946 53.9774 10.1501 55.2613L4.49899 80.6903C4.00759 82.9016 5.68987 85 7.95431 85H20.3744C22.6411 85 24.3233 82.9016 23.8319 80.6903L18.1808 55.2613C19.9915 53.9774 21.2488 51.9697 21.2488 49.5836C21.2488 47.0225 19.8166 44.8798 17.7824 43.6358C17.9506 40.3111 19.6506 37.3715 22.3622 35.5077L65.6521 48.8088C67.6576 49.4242 71.5047 50.1923 76.0092 48.8088L137.756 29.8389C142.968 28.2363 142.968 21.3478 137.756 19.7452ZM78.0899 55.58C71.7747 57.5191 66.3936 56.4477 63.5714 55.58L31.4708 45.7187L28.332 70.8334C28.332 78.6582 47.3595 85 70.8318 85C94.304 85 113.331 78.6582 113.331 70.8334L110.193 45.7165L78.0899 55.58Z" fill="#2C4E91"/>
</g>
</svg>
