<svg width="37" height="22" viewBox="0 0 37 22" fill="none" xmlns="http://www.w3.org/2000/svg">
<g id="&#240;&#159;&#166;&#134; icon &#34;Graduation Cap&#34;">
<path id="Vector" d="M35.6544 5.11053L19.6735 0.200663C18.8027 -0.0668876 17.8631 -0.0668876 16.9929 0.200663L1.01148 5.11053C-0.337159 5.52474 -0.337159 7.30822 1.01148 7.72244L3.79755 8.57837C3.18626 9.33404 2.81042 10.2559 2.77319 11.2653C2.22147 11.5816 1.83303 12.1522 1.83303 12.8334C1.83303 13.451 2.15845 13.9706 2.62709 14.3029L1.16445 20.8845C1.03726 21.4569 1.47267 22 2.05876 22H5.27338C5.86004 22 6.29545 21.4569 6.16827 20.8845L4.70562 14.3029C5.17426 13.9706 5.49968 13.451 5.49968 12.8334C5.49968 12.1705 5.129 11.616 4.6025 11.294C4.64604 10.4335 5.08603 9.67263 5.78785 9.19024L16.9923 12.6329C17.5114 12.7921 18.5071 12.9909 19.673 12.6329L35.6544 7.72301C37.0036 7.30822 37.0036 5.52532 35.6544 5.11053ZM20.2115 14.3854C18.577 14.8873 17.1842 14.61 16.4538 14.3854L8.14539 11.8331L7.333 18.3334C7.333 20.3586 12.2578 22 18.3329 22C24.4081 22 29.3329 20.3586 29.3329 18.3334L28.5205 11.8325L20.2115 14.3854Z" fill="white"/>
</g>
</svg>
