<svg width="97" height="94" viewBox="0 0 97 94" fill="none" xmlns="http://www.w3.org/2000/svg">
<g id="&#240;&#159;&#166;&#134; icon &#34;megaphone&#34;">
<path id="Vector" d="M19.2502 19.2128C8.61818 19.2128 0 27.8309 0 38.4629C0 49.0949 8.61818 57.7131 19.2502 57.7131C20.9985 57.7131 22.4351 56.4285 22.6979 54.7549H22.7533V22.7172C22.7533 20.7833 21.1841 19.2128 19.2502 19.2128Z" fill="#2C4E91"/>
<path id="Vector_2" d="M96.9234 3.50319C96.9234 1.56928 95.3554 0 93.4202 0C92.6175 0 91.887 0.280873 91.2969 0.734394L60.4704 18.5325H32.6819C30.7467 18.5325 29.1787 20.1005 29.1787 22.0357V55.2883H29.2225C29.4377 57.016 30.8949 58.3586 32.6819 58.3586H57.3395L91.0444 77.8174C91.6692 78.3972 92.5003 78.7593 93.4202 78.7593C95.3541 78.7593 96.9234 77.19 96.9234 75.2561C96.9234 75.1234 96.8989 74.9971 96.8847 74.8683H96.9234V68.9364V9.63602V3.70676H96.9028C96.9066 3.63847 96.9234 3.57405 96.9234 3.50319Z" fill="#2C4E91"/>
<path id="Vector_3" d="M56.4641 85.0054L56.4152 84.9203C56.3984 84.8894 56.3907 84.8572 56.3726 84.8263C56.3546 84.7953 56.3314 84.7722 56.3134 84.7438L45.6131 66.2126L45.5732 66.2358C44.9882 65.4318 44.1173 64.9396 43.1806 64.8237V64.785H33.8757V64.8082C33.3758 64.8495 32.8772 64.9873 32.4133 65.2553C30.7371 66.2216 30.1638 68.3655 31.1314 70.0405C31.2138 70.1822 31.3143 70.3059 31.4135 70.4309L31.3723 70.4553L43.8416 92.0542C43.8428 92.0568 43.8428 92.0581 43.8441 92.0607C43.8454 92.0633 43.848 92.0658 43.848 92.0658L43.973 92.2823L43.9949 92.2694C45.0179 93.7704 47.0304 94.2652 48.628 93.3414C48.8148 93.2331 48.9836 93.1056 49.1421 92.9716L49.1743 93.027L55.5944 89.3215L55.5648 89.27C56.8081 88.2431 57.1934 86.4806 56.4551 85.0105L56.4641 85.0054Z" fill="#2C4E91"/>
</g>
</svg>
