<svg width="28" height="27" viewBox="0 0 28 27" fill="none" xmlns="http://www.w3.org/2000/svg">
<g id="&#240;&#159;&#166;&#134; icon &#34;megaphone&#34;">
<path id="Vector" d="M5.54062 5.53003C2.48051 5.53003 0 8.01054 0 11.0707C0 14.1308 2.48051 16.6113 5.54062 16.6113C6.04384 16.6113 6.45732 16.2416 6.53297 15.7599H6.54892V6.5387C6.54892 5.98208 6.09724 5.53003 5.54062 5.53003Z" fill="white"/>
<path id="Vector_2" d="M27.8969 1.0083C27.8969 0.451675 27.4456 0 26.8886 0C26.6575 0 26.4473 0.0808417 26.2774 0.211375L17.4049 5.33408H9.40673C8.84974 5.33408 8.39844 5.78538 8.39844 6.34237V15.9132H8.41105C8.47298 16.4105 8.89239 16.7969 9.40673 16.7969H16.5037L26.2048 22.3976C26.3846 22.5645 26.6238 22.6687 26.8886 22.6687C27.4452 22.6687 27.8969 22.217 27.8969 21.6604C27.8969 21.6222 27.8898 21.5859 27.8857 21.5488H27.8969V19.8415V2.77347V1.06689H27.8909C27.892 1.04724 27.8969 1.02869 27.8969 1.0083Z" fill="white"/>
<path id="Vector_3" d="M16.2519 24.4664L16.2378 24.4419C16.233 24.433 16.2307 24.4237 16.2255 24.4148C16.2203 24.4059 16.2137 24.3992 16.2085 24.3911L13.1287 19.0574L13.1172 19.064C12.9489 18.8326 12.6982 18.691 12.4286 18.6576V18.6465H9.75042V18.6532C9.60653 18.665 9.46302 18.7047 9.32952 18.7818C8.84707 19.06 8.68204 19.677 8.96054 20.1591C8.98427 20.1999 9.0132 20.2355 9.04175 20.2715L9.02989 20.2785L12.6188 26.4952C12.6192 26.4959 12.6192 26.4963 12.6196 26.497C12.6199 26.4978 12.6207 26.4985 12.6207 26.4985L12.6566 26.5608L12.6629 26.5571C12.9574 26.9891 13.5366 27.1315 13.9965 26.8656C14.0502 26.8345 14.0988 26.7978 14.1444 26.7592L14.1537 26.7752L16.0016 25.7086L15.993 25.6938C16.3509 25.3983 16.4618 24.891 16.2493 24.4678L16.2519 24.4664Z" fill="white"/>
</g>
</svg>
